<?xml version="1.0" encoding="UTF-8" standalone="no"?>
<svg
   xmlns:dc="http://purl.org/dc/elements/1.1/"
   xmlns:cc="http://creativecommons.org/ns#"
   xmlns:rdf="http://www.w3.org/1999/02/22-rdf-syntax-ns#"
   xmlns:svg="http://www.w3.org/2000/svg"
   xmlns="http://www.w3.org/2000/svg"
   viewBox="0 0 271.15237 132.55057"
   height="132.55057"
   width="271.15237"
   xml:space="preserve"
   id="svg2"
   version="1.1"><metadata
     id="metadata8"><rdf:RDF><cc:Work
         rdf:about=""><dc:format>image/svg+xml</dc:format><dc:type
           rdf:resource="http://purl.org/dc/dcmitype/StillImage" /></cc:Work></rdf:RDF></metadata><defs
     id="defs6" /><g
     transform="matrix(1.3333333,0,0,-1.3333333,0,132.55056)"
     id="g10"><g
       id="g12"><path
         id="path14"
         style="fill:#000000;fill-opacity:1;fill-rule:nonzero;stroke:none"
         d="M 93.434,84.788 C 85.945,83.436 78.867,79.71 73.926,75.018 83.902,76.452 102.977,70.62 112.898,62.214 111.656,66.198 102.59,79.022 93.434,84.788 Z" /><path
         id="path16"
         style="fill:#000000;fill-opacity:1;fill-rule:nonzero;stroke:none"
         d="M 70.383,71.331 C 65.551,65.452 62.57,58.03 61.84,51.253 68.512,58.804 86.828,66.71 99.832,66.729 96.309,68.96 81.094,72.866 70.383,71.331 Z" /><path
         id="path18"
         style="fill:#000000;fill-opacity:1;fill-rule:nonzero;stroke:none"
         d="m 61.441,46.389 c 0.063,-7.605 2.532,-15.214 6.317,-20.882 0.281,10.074 9.269,27.879 19.238,36.23 C 82.859,61.19 68.68,54.436 61.441,46.389 Z" /><path
         id="path20"
         style="fill:#000000;fill-opacity:1;fill-rule:nonzero;stroke:none"
         d="M 70.789,21.386 C 75.762,15.628 82.566,11.429 89.121,9.557 82.812,17.417 78.137,36.807 80.324,49.628 77.527,46.534 71.094,32.202 70.789,21.386 Z" /><path
         id="path22"
         style="fill:#000000;fill-opacity:1;fill-rule:nonzero;stroke:none"
         d="M 93.703,8.397 C 101.199,7.1 109.125,8.175 115.379,10.893 105.512,12.96 89.59,24.975 83.148,36.272 82.949,32.104 87.074,16.948 93.703,8.397 Z" /><path
         id="path24"
         style="fill:#000000;fill-opacity:1;fill-rule:nonzero;stroke:none"
         d="m 119.969,13.143 c 6.554,3.868 11.898,9.817 14.906,15.934 -8.859,-4.809 -28.773,-5.961 -40.996,-1.523 2.547,-3.305 15.504,-12.184 26.09,-14.411 z" /><path
         id="path26"
         style="fill:#000000;fill-opacity:1;fill-rule:nonzero;stroke:none"
         d="m 137.008,33.511 c 2.551,7.168 2.836,15.16 1.222,21.785 -3.714,-9.371 -18.261,-23.02 -30.488,-27.446 4.07,-0.906 19.711,0.582 29.266,5.661 z" /><path
         id="path28"
         style="fill:#000000;fill-opacity:1;fill-rule:nonzero;stroke:none"
         d="m 136.793,60.202 c -2.695,7.117 -7.652,13.395 -13.172,17.395 3.234,-9.543 0.988,-29.364 -5.465,-40.657 3.692,1.949 14.645,13.207 18.637,23.262 z" /><path
         id="path30"
         style="fill:#000000;fill-opacity:1;fill-rule:nonzero;stroke:none"
         d="m 119.711,80.436 c -6.602,3.782 -14.418,5.481 -21.223,5.067 8.563,-5.321 19.418,-22.055 21.61,-34.871 1.613,3.847 2.918,19.5 -0.387,29.804 z" /><path
         id="path32"
         style="fill:#000000;fill-opacity:1;fill-rule:nonzero;stroke:none"
         d="m 0,42.014 c 0,0 82.379,117.379 200.297,16.426 0,0 5.383,-4.847 1.887,-11.039 -4.411,-7.808 -15.079,5.113 -15.079,5.113 0,0 -81.839,96.918 -187.105,-10.5 z" /><path
         id="path34"
         style="fill:#000000;fill-opacity:1;fill-rule:nonzero;stroke:none"
         d="m 6.461,42.284 c 0,0 90.457,99.879 175.797,3.77 0,0 12.656,-15.614 4.308,-22.344 -8.343,-6.731 -12.652,1.883 -14.804,3.23 -2.157,1.344 -3.504,-0.808 -5.117,-3.5 -1.618,-2.695 -78.879,-58.422 -159.11,12.114 0,0 86.957,-69.997 156.957,-4.579 0,0 7.809,8.618 -0.269,18.579 -8.078,9.96 -56.535,72.421 -157.762,-7.27 z" /></g></g></svg>